# xmcd
#
# Track frame offsets: 
#        150
#        13355
#        38955
#        55085
#        71990
#        93175
#        116575
#        136092
#        154692
#        174055
#        200655
#        219055
#        242417
#        259632
#        279980
#        293950
#        308225
#        321925
#
# Disc length: 4555 seconds
#
# Revision: 10
# Processed by: cddbd v1.5.2PL0 Copyright (c) Steve Scherf et al.
# Submitted via: ExactAudioCopy v0.90b4
#
DISCID=fb11c912
DTITLE=Midnight Oil - 20,000 Watt R.S.L.
DYEAR=1997
DGENRE=Rock
TTITLE0=What Goes On
TTITLE1=Power And The Passion
TTITLE2=Dreamworld
TTITLE3=White Skin Black Heart
TTITLE4=Kosciuszko
TTITLE5=The Dead Heart
TTITLE6=Blue Sky Mine
TTITLE7=US Forces
TTITLE8=Beds Are Burning
TTITLE9=One Country
TTITLE10=Best Of Both Worlds
TTITLE11=Truganini
TTITLE12=King Of The Mountain
TTITLE13=Hercules
TTITLE14=Surf's Up Tonight
TTITLE15=Back On The Borderline
TTITLE16=Don't Wanna Be The One
TTITLE17=Forgotten Years
EXTD=
EXTT0=
EXTT1=
EXTT2=
EXTT3=
EXTT4=
EXTT5=
EXTT6=
EXTT7=
EXTT8=
EXTT9=
EXTT10=
EXTT11=
EXTT12=
EXTT13=
EXTT14=
EXTT15=
EXTT16=
EXTT17=
PLAYORDER=
